{"title":"Armin.Van Buuren.Live 2005[XVID_AC3_5.1]_Sassah","uid":5373934,"size":1467966486,"categoryP":"video","categoryS":"music_videos","magnet":"?xt=urn:btih:09b437e5ea0e196ed3ea80486cc4e1522f01c143&amp;dn=Armin.Van+Buuren.Live+2005%5BXVID_AC3_5.1%5D_Sassah&amp;tr=udp%3A%2F%2Ftracker.openbittorrent.com%3A80&amp;tr=udp%3A%2F%2Fopen.demonii.com%3A1337&amp;tr=udp%3A%2F%2Ftracker.coppersurfer.tk%3A6969&amp;tr=udp%3A%2F%2Fexodus.desync.com%3A6969","seeders":0,"leechers":1,"uploader":"Sassah","files":3,"time":1266513393,"description":" &lt;a href=&quot; http://bayimg.com/BakLAAaCI&quot; rel=&quot;nofollow&quot; target=&quot;_NEW&quot;&gt; http://bayimg.com/BakLAAaCI&lt;/a&gt;\n\n\n\n\n   General\n      Complete name : Armin Van Buuren Live 2005 CD 01.avi\n      Format : AVI\n      Format/Info : Audio Video Interleave\n      File size : 701 MiB\n      Duration : 49mn 47s\n      Overall bit rate : 1 968 Kbps\n      Writing application : VirtualDubMod 1.5.10.2 (build 2540/release)\n      Writing library : VirtualDubMod build 2540/release\n   Video\n      Format : MPEG-4 Visual\n      Format profile : Streaming Video@L1\n      Format settings, BVOP : Yes\n      Format settings, QPel : No\n      Format settings, GMC : No warppoints\n      Format settings, Matrix : Default\n      Muxing mode : Packed bitstream\n      Codec ID : XVID\n      Codec ID/Hint : XviD\n      Duration : 49mn 47s\n      Bit rate : 1 510 Kbps\n      Width : 640 pixels\n      Height : 352 pixels\n      Display aspect ratio : 16/9\n      Frame rate : 25.000 fps\n      Resolution : 24 bits\n      Colorimetry : 4:2:0\n      Scan type : Progressive\n      Bits/(Pixel*Frame) : 0.268\n      Stream size : 538 MiB (77%)\n      Writing library : XviD 1.0.3 (UTC 2004-12-20)\n   Audio\n      Format : AC-3\n      Format/Info : Audio Coding 3\n      Codec ID : 2000\n      Duration : 49mn 47s\n      Bit rate mode : Constant\n      Bit rate : 448 Kbps\n      Channel(s) : 6 channels\n      Channel positions : Front: L C R, Surround: L R, LFE\n      Sampling rate : 48.0 KHz\n      Stream size : 160 MiB (23%)\n      Alignment : Split accross interleaves\n      Interleave, duration : 40 ms (1.00 video frame)\n      Interleave, preload duration : 500 ms\n\n-----------------------------------------------------------------------------------\n\n   General\n      Complete name : Armin Van Buuren Live 2005 CD 02.avi\n      Format : AVI\n      Format/Info : Audio Video Interleave\n      File size : 699 MiB\n      Duration : 50mn 29s\n      Overall bit rate : 1 936 Kbps\n      Writing application : VirtualDubMod 1.5.10.2 (build 2540/release)\n      Writing library : VirtualDubMod build 2540/release\n   Video\n      Format : MPEG-4 Visual\n      Format profile : Streaming Video@L1\n      Format settings, BVOP : Yes\n      Format settings, QPel : No\n      Format settings, GMC : No warppoints\n      Format settings, Matrix : Default\n      Muxing mode : Packed bitstream\n      Codec ID : XVID\n      Codec ID/Hint : XviD\n      Duration : 50mn 29s\n      Bit rate : 1 478 Kbps\n      Width : 640 pixels\n      Height : 352 pixels\n      Display aspect ratio : 16/9\n      Frame rate : 25.000 fps\n      Resolution : 24 bits\n      Colorimetry : 4:2:0\n      Scan type : Progressive\n      Bits/(Pixel*Frame) : 0.262\n      Stream size : 534 MiB (76%)\n      Writing library : XviD 1.0.3 (UTC 2004-12-20)\n   Audio\n      Format : AC-3\n      Format/Info : Audio Coding 3\n      Codec ID : 2000\n      Duration : 50mn 29s\n      Bit rate mode : Constant\n      Bit rate : 448 Kbps\n      Channel(s) : 6 channels\n      Channel positions : Front: L C R, Surround: L R, LFE\n      Sampling rate : 48.0 KHz\n      Stream size : 162 MiB (23%)\n      Alignment : Split accross interleaves\n      Interleave, duration : 40 ms (1.00 video frame)\n      Interleave, preload duration : 500 ms","torrent":{"xt":"urn:btih:09b437e5ea0e196ed3ea80486cc4e1522f01c143","amp;dn":"Armin.Van+Buuren.Live+2005%5BXVID_AC3_5.1%5D_Sassah","amp;tr":["udp%3A%2F%2Ftracker.openbittorrent.com%3A80","udp%3A%2F%2Fopen.demonii.com%3A1337","udp%3A%2F%2Ftracker.coppersurfer.tk%3A6969","udp%3A%2F%2Fexodus.desync.com%3A6969"],"infoHash":"09b437e5ea0e196ed3ea80486cc4e1522f01c143","infoHashBuffer":{"type":"Buffer","data":[9,180,55,229,234,14,25,110,211,234,128,72,108,196,225,82,47,1,193,67]},"announce":[],"urlList":[]}}